<svg width="128" height="128" viewBox="0 0 128 128" xmlns="http://www.w3.org/2000/svg">
  <rect width="128" height="128" rx="28" fill="transparent" />
  <circle cx="64" cy="64" r="56" fill="#f8efff" stroke="#d1b4ff" stroke-width="2" />
  <g fill="none" stroke="#5b3a70" stroke-width="4" stroke-linecap="round" stroke-linejoin="round" transform="translate(18 20)">
    <path d="M24 0c-8 0-16 14-16 30s8 36 16 36 16-20 16-36S32 0 24 0z" />
    <path d="M72 0c8 0 16 14 16 30s-8 36-16 36-16-20-16-36 8-30 16-30z" />
    <path d="M16 70c0 22 18 38 46 38s46-16 46-38c0-20-18-34-46-34S16 50 16 70z" />
    <circle cx="46" cy="64" r="5" />
    <circle cx="82" cy="64" r="5" />
    <path d="M54 82c6 4 12 4 18 0" />
    <path d="M36 78h8" />
    <path d="M88 78h8" />
  </g>
</svg>
